<svg width="22" height="22" viewBox="0 0 22 22" fill="none" xmlns="http://www.w3.org/2000/svg">
<path d="M9.41177 5.17032L6.08516 1.33041C5.70166 0.887907 4.99858 0.889873 4.55313 1.33631L1.8175 4.07685C1.0033 4.89203 0.770251 6.10252 1.24127 7.07307C4.05519 12.8993 8.75397 17.6046 14.5762 20.4267C15.5458 20.8977 16.7553 20.6647 17.5695 19.8495L20.3307 17.0834C20.7781 16.636 20.7791 15.929 20.3327 15.5455L16.478 12.2365C16.0748 11.8904 15.4484 11.9356 15.0443 12.3408L13.703 13.684C13.6344 13.756 13.544 13.8034 13.4457 13.819C13.3475 13.8347 13.2469 13.8176 13.1593 13.7705C10.9669 12.508 9.14823 10.687 7.88859 8.493C7.84142 8.40524 7.82434 8.30442 7.83997 8.20602C7.8556 8.10761 7.90308 8.01706 7.97512 7.94823L9.31246 6.60992C9.71759 6.20282 9.76184 5.57348 9.41177 5.16933V5.17032Z" stroke="#898989" stroke-width="1.96666" stroke-linecap="round" stroke-linejoin="round"/>
</svg>
