<svg width="69" height="72" viewBox="0 0 69 72" fill="none" xmlns="http://www.w3.org/2000/svg">
<circle cx="34.4999" cy="38.0668" r="33.933" fill="#EEEEEE"/>
<mask id="mask0_130_187" style="mask-type:luminance" maskUnits="userSpaceOnUse" x="0" y="4" width="69" height="68">
<circle cx="34.4999" cy="38.0668" r="33.933" fill="white"/>
</mask>
<g mask="url(#mask0_130_187)">
<path fill-rule="evenodd" clip-rule="evenodd" d="M16.6873 22.1221H1.61746C0.571177 22.1221 -0.250732 22.951 -0.250732 24.0062V61.9388C-0.250732 62.9937 0.571177 63.8229 1.61746 63.8229H16.6873C17.7336 63.8229 18.5555 62.9937 18.5555 61.9388V24.0062C18.5555 22.951 17.7335 22.1221 16.6873 22.1221Z" fill="#FFA300"/>
</g>
<ellipse cx="49.0238" cy="2.04269" rx="2.03453" ry="2.04269" fill="#FCBF29"/>
<path fill-rule="evenodd" clip-rule="evenodd" d="M23.7956 18.7928C23.0863 18.7928 22.4374 18.3891 22.1213 17.7494L19.9058 13.2773L15.4713 11.0431C14.837 10.7242 14.4368 10.0698 14.4368 9.35449C14.4368 8.63919 14.837 7.98476 15.4713 7.66592L19.9058 5.43168L22.1213 0.959532C22.7537 -0.319844 24.8338 -0.319844 25.47 0.959532L27.6873 5.43168L32.1199 7.66592C32.7542 7.98665 33.1545 8.63919 33.1545 9.35449C33.1545 10.0698 32.7542 10.7223 32.1199 11.0431L27.6873 13.2773L25.47 17.7494C25.1519 18.3891 24.5049 18.7928 23.7956 18.7928Z" fill="#FEDB41"/>
<path fill-rule="evenodd" clip-rule="evenodd" d="M61.3666 14.4349H59.4677V12.5284C59.4677 11.4747 58.6183 10.6219 57.5688 10.6219C56.5192 10.6219 55.6699 11.4747 55.6699 12.5284V14.4349H53.771C52.7214 14.4349 51.8721 15.2877 51.8721 16.3414C51.8721 17.3952 52.7214 18.248 53.771 18.248H55.6699V20.1545C55.6699 21.2082 56.5192 22.061 57.5688 22.061C58.6183 22.061 59.4677 21.2082 59.4677 20.1545V18.248H61.3666C62.4161 18.248 63.2655 17.3952 63.2655 16.3414C63.2655 15.2877 62.4162 14.4349 61.3666 14.4349Z" fill="#FCBF29"/>
<path fill-rule="evenodd" clip-rule="evenodd" d="M53.4997 63.732H35.6715C32.2124 63.732 28.9394 62.4044 26.4847 59.9336L22.3191 55.8033C21.947 55.4716 21.761 54.9921 21.761 54.5128V32.1408C21.761 31.1082 22.5792 30.2969 23.6207 30.2969H27.3402L33.2169 24.4333C36.6387 21.0777 38.4984 16.6154 38.4984 11.8585C38.4984 9.83019 40.1721 8.17072 42.2178 8.17072C44.2635 8.17072 45.9373 9.83019 45.9373 11.8585V14.6611C45.9373 19.1232 45.1191 23.5484 43.5568 27.826L42.627 30.2969H52.719L53.0167 42.8843L53.4997 63.732Z" fill="#FEC478"/>
<path fill-rule="evenodd" clip-rule="evenodd" d="M58.2866 46.9825C60.5923 46.9825 62.4516 48.9531 62.4516 51.2439C62.4516 53.5717 60.5922 55.4192 58.2866 55.4192H54.5678C56.8735 55.4192 58.7328 57.2666 58.7328 59.5944C58.7328 61.8853 56.8734 63.7326 54.5678 63.7326H47.8988C45.5932 63.7326 43.7339 61.8851 43.7339 59.5944C43.7339 57.2666 45.5933 55.4192 47.8988 55.4192C45.5932 55.4192 43.7339 53.5717 43.7339 51.2439C43.7339 48.9531 45.5933 46.9825 47.8988 46.9825C45.5932 46.9825 43.7339 45.135 43.7339 42.8443C43.7339 40.5165 45.5933 38.5459 47.8988 38.5459C45.5932 38.5459 43.7339 36.6984 43.7339 34.3706C43.7339 32.0798 45.5933 30.2324 47.8988 30.2324H58.2866C60.5923 30.2324 62.4516 32.0799 62.4516 34.3706C62.4516 36.6984 60.5922 38.5459 58.2866 38.5459C60.5923 38.5459 62.4516 40.5164 62.4516 42.8443C62.4516 45.135 60.5922 46.9825 58.2866 46.9825Z" fill="#FEDBAB"/>
<path fill-rule="evenodd" clip-rule="evenodd" d="M23.1173 26.9637H15.5217C14.4582 26.9637 13.6228 27.7765 13.6228 28.8111V58.6164C13.6228 59.6508 14.4582 60.4639 15.5217 60.4639H23.1173C24.1808 60.4639 25.0162 59.6508 25.0162 58.6164V28.811C25.0162 27.7763 24.1806 26.9637 23.1173 26.9637Z" fill="#FF8435"/>
<ellipse cx="9.14684" cy="54.3357" rx="2.03453" ry="2.04269" fill="#FFD500"/>
</svg>
