<svg width="32" height="32" viewBox="0 0 32 32" fill="none" xmlns="http://www.w3.org/2000/svg">
<path d="M14.586 16L11.7579 13.172C11.5758 12.9834 11.475 12.7308 11.4773 12.4686C11.4796 12.2064 11.5847 11.9556 11.7701 11.7702C11.9555 11.5848 12.2063 11.4796 12.4685 11.4773C12.7307 11.475 12.9833 11.5758 13.172 11.758L16 14.586L18.828 11.758C18.9202 11.6625 19.0306 11.5863 19.1526 11.5339C19.2746 11.4815 19.4058 11.4539 19.5386 11.4527C19.6714 11.4516 19.803 11.4769 19.9259 11.5272C20.0488 11.5774 20.1605 11.6517 20.2544 11.7456C20.3483 11.8395 20.4225 11.9511 20.4728 12.074C20.5231 12.1969 20.5484 12.3286 20.5472 12.4614C20.5461 12.5942 20.5185 12.7254 20.4661 12.8474C20.4137 12.9694 20.3375 13.0797 20.242 13.172L17.414 16L20.242 18.828C20.3375 18.9203 20.4137 19.0306 20.4661 19.1526C20.5185 19.2746 20.5461 19.4058 20.5472 19.5386C20.5484 19.6714 20.5231 19.8031 20.4728 19.926C20.4225 20.0489 20.3483 20.1605 20.2544 20.2544C20.1605 20.3483 20.0488 20.4226 19.9259 20.4728C19.803 20.5231 19.6714 20.5484 19.5386 20.5473C19.4058 20.5461 19.2746 20.5185 19.1526 20.4661C19.0306 20.4137 18.9202 20.3375 18.828 20.242L16 17.414L13.172 20.242C12.9833 20.4242 12.7307 20.525 12.4685 20.5227C12.2063 20.5204 11.9555 20.4153 11.7701 20.2298C11.5847 20.0444 11.4796 19.7936 11.4773 19.5314C11.475 19.2692 11.5758 19.0166 11.7579 18.828L14.586 16Z" fill="#898989"/>
<path d="M16 28C17.5759 28 19.1363 27.6896 20.5922 27.0866C22.0481 26.4835 23.371 25.5996 24.4853 24.4853C25.5996 23.371 26.4835 22.0481 27.0866 20.5922C27.6896 19.1363 28 17.5759 28 16C28 14.4241 27.6896 12.8637 27.0866 11.4078C26.4835 9.95189 25.5996 8.62902 24.4853 7.51472C23.371 6.40042 22.0481 5.5165 20.5922 4.91345C19.1363 4.31039 17.5759 4 16 4C12.8174 4 9.76515 5.26428 7.51472 7.51472C5.26428 9.76515 4 12.8174 4 16C4 19.1826 5.26428 22.2348 7.51472 24.4853C9.76515 26.7357 12.8174 28 16 28ZM16 30C12.287 30 8.72601 28.525 6.1005 25.8995C3.475 23.274 2 19.713 2 16C2 12.287 3.475 8.72601 6.1005 6.1005C8.72601 3.475 12.287 2 16 2C19.713 2 23.274 3.475 25.8995 6.1005C28.525 8.72601 30 12.287 30 16C30 19.713 28.525 23.274 25.8995 25.8995C23.274 28.525 19.713 30 16 30Z" fill="#898989"/>
</svg>
